<svg width="40" height="40" viewBox="0 0 40 40" fill="none" xmlns="http://www.w3.org/2000/svg">
<path d="M11.6667 8.33333H21.6667C23.2138 8.33333 24.6975 8.94791 25.7915 10.0419C26.8854 11.1358 27.5 12.6196 27.5 14.1667C27.5 15.7138 26.8854 17.1975 25.7915 18.2915C24.6975 19.3854 23.2138 20 21.6667 20H11.6667V8.33333Z" stroke="#7A7A7A" stroke-width="4" stroke-linecap="round" stroke-linejoin="round"/>
<path d="M21.6667 20H23.3333C24.8804 20 26.3642 20.6146 27.4581 21.7085C28.5521 22.8025 29.1667 24.2862 29.1667 25.8333C29.1667 27.3804 28.5521 28.8642 27.4581 29.9581C26.3642 31.0521 24.8804 31.6667 23.3333 31.6667H11.6667V20" stroke="#7A7A7A" stroke-width="4" stroke-linecap="round" stroke-linejoin="round"/>
</svg>
