<svg width="100" height="100" viewBox="0 0 100 100" fill="none" xmlns="http://www.w3.org/2000/svg">
<rect width="100" height="100" fill="#6A6A6A"/>
<path d="M69.0493 27.4924C54.0026 32.9117 33.3382 62.7385 28.5623 71.5001L36.1903 78.4372L78.0851 34.7159L69.0493 27.4924Z" fill="url(#paint0_linear_303_2)"/>
<path d="M69 27.0173C44.6335 26.1356 33.0936 59.2157 29 72C33.6004 64.3294 37.8109 59.348 37.8109 59.348C50.0916 60.4941 53.5614 53.3085 53.5614 53.3085C47.6745 54.2343 46.3099 51.7215 46.3099 51.7215C58.7466 49.87 60.345 43.0811 60.345 43.0811C57.1092 44.3154 51.1832 42.3316 52.2359 42.1994C63.1131 40.8328 64.1657 34.4406 64.1657 34.4406C64.1657 34.4406 60.345 35.4546 58.0058 34.9697C67.3236 32.1042 69 27.0173 69 27.0173Z" fill="#D9D9D9"/>
<defs>
<linearGradient id="paint0_linear_303_2" x1="45.4682" y1="43.953" x2="57.7032" y2="54.894" gradientUnits="userSpaceOnUse">
<stop stop-opacity="0.5"/>
<stop offset="1" stop-opacity="0"/>
</linearGradient>
</defs>
</svg>
