<svg width="25" height="25" viewBox="0 0 25 25" fill="none" xmlns="http://www.w3.org/2000/svg">
<path d="M14.5833 8.33333V6.25C14.5833 5.69747 14.3638 5.16756 13.9731 4.77686C13.5824 4.38616 13.0525 4.16667 12.5 4.16667H5.20833C4.6558 4.16667 4.12589 4.38616 3.73519 4.77686C3.34449 5.16756 3.125 5.69747 3.125 6.25V18.75C3.125 19.3025 3.34449 19.8324 3.73519 20.2231C4.12589 20.6138 4.6558 20.8333 5.20833 20.8333H12.5C13.0525 20.8333 13.5824 20.6138 13.9731 20.2231C14.3638 19.8324 14.5833 19.3025 14.5833 18.75V16.6667" stroke="#00376A" stroke-width="2" stroke-linecap="round" stroke-linejoin="round"/>
<path d="M7.29166 12.5H21.875L18.75 9.375M18.75 15.625L21.875 12.5" stroke="#00376A" stroke-width="2" stroke-linecap="round" stroke-linejoin="round"/>
</svg>
