<svg width="35" height="35" viewBox="0 0 35 35" fill="none" xmlns="http://www.w3.org/2000/svg">
<circle cx="17.5" cy="17.5" r="17.5" fill="#D9D9D9"/>
<path d="M17.7373 15.8055C20.2867 15.8055 22.3534 13.7388 22.3534 11.1894C22.3534 8.63993 20.2867 6.57321 17.7373 6.57321C15.1879 6.57321 13.1212 8.63993 13.1212 11.1894C13.1212 13.7388 15.1879 15.8055 17.7373 15.8055Z" stroke="#414141" stroke-width="2.96752" stroke-linecap="round" stroke-linejoin="round"/>
<path d="M10.8131 27.3458V25.0378C10.8131 23.8135 11.2994 22.6394 12.1651 21.7737C13.0308 20.908 14.205 20.4216 15.4292 20.4216H20.0454C21.2697 20.4216 22.4438 20.908 23.3095 21.7737C24.1752 22.6394 24.6615 23.8135 24.6615 25.0378V27.3458" stroke="#414141" stroke-width="2.96752" stroke-linecap="round" stroke-linejoin="round"/>
</svg>
