<svg width="45" height="45" viewBox="0 0 45 45" fill="none" xmlns="http://www.w3.org/2000/svg">
<circle cx="22.5" cy="22.5" r="22.5" fill="#D9D9D9"/>
<path d="M23 7.99999C26.3091 11.4443 30.628 13.2376 35.0417 13C35.6843 15.5717 35.8809 18.2691 35.6198 20.932C35.3588 23.5948 34.6455 26.1688 33.5222 28.5009C32.3989 30.833 30.8886 32.8756 29.081 34.5075C27.2734 36.1393 25.2054 37.327 23 38C20.7946 37.327 18.7266 36.1393 16.919 34.5075C15.1114 32.8756 13.6011 30.833 12.4778 28.5009C11.3545 26.1688 10.6412 23.5948 10.3802 20.932C10.1191 18.2691 10.3157 15.5717 10.9583 13C15.372 13.2376 19.6909 11.4443 23 7.99999" stroke="#414141" stroke-width="3" stroke-linecap="round" stroke-linejoin="round"/>
</svg>
