<svg width="25" height="25" viewBox="0 0 25 25" fill="none" xmlns="http://www.w3.org/2000/svg">
<path d="M10.7552 4.49687C11.199 2.66771 13.801 2.66771 14.2448 4.49687C14.3114 4.77167 14.4419 5.02685 14.6257 5.24167C14.8096 5.45648 15.0416 5.62485 15.3028 5.73307C15.564 5.84129 15.847 5.8863 16.1289 5.86445C16.4108 5.84259 16.6836 5.75448 16.925 5.60729C18.5323 4.62812 20.3729 6.46771 19.3937 8.07604C19.2468 8.31735 19.1588 8.58993 19.137 8.87164C19.1152 9.15334 19.1602 9.43622 19.2683 9.69727C19.3764 9.95832 19.5445 10.1902 19.7591 10.374C19.9737 10.5578 20.2286 10.6884 20.5031 10.7552C22.3323 11.199 22.3323 13.801 20.5031 14.2448C20.2283 14.3114 19.9731 14.4419 19.7583 14.6257C19.5435 14.8096 19.3752 15.0416 19.2669 15.3028C19.1587 15.564 19.1137 15.847 19.1356 16.1289C19.1574 16.4108 19.2455 16.6836 19.3927 16.925C20.3719 18.5323 18.5323 20.3729 16.924 19.3937C16.6826 19.2468 16.4101 19.1588 16.1284 19.137C15.8467 19.1152 15.5638 19.1602 15.3027 19.2683C15.0417 19.3764 14.8098 19.5445 14.626 19.7591C14.4422 19.9737 14.3116 20.2286 14.2448 20.5031C13.801 22.3323 11.199 22.3323 10.7552 20.5031C10.6886 20.2283 10.5581 19.9731 10.3743 19.7583C10.1904 19.5435 9.95845 19.3752 9.69724 19.2669C9.43603 19.1587 9.15295 19.1137 8.87106 19.1356C8.58916 19.1574 8.31641 19.2455 8.075 19.3927C6.46771 20.3719 4.62708 18.5323 5.60625 16.924C5.75323 16.6826 5.8412 16.4101 5.863 16.1284C5.88481 15.8467 5.83984 15.5638 5.73174 15.3027C5.62365 15.0417 5.45548 14.8098 5.24091 14.626C5.02634 14.4422 4.77142 14.3116 4.49687 14.2448C2.66771 13.801 2.66771 11.199 4.49687 10.7552C4.77167 10.6886 5.02685 10.5581 5.24167 10.3743C5.45648 10.1904 5.62485 9.95845 5.73307 9.69724C5.84129 9.43603 5.8863 9.15295 5.86445 8.87106C5.84259 8.58916 5.75448 8.31641 5.60729 8.075C4.62812 6.46771 6.46771 4.62708 8.07604 5.60625C9.11771 6.23958 10.4677 5.67917 10.7552 4.49687Z" stroke="#00376A" stroke-width="2" stroke-linecap="round" stroke-linejoin="round"/>
<path d="M12.5 15.625C14.2259 15.625 15.625 14.2259 15.625 12.5C15.625 10.7741 14.2259 9.375 12.5 9.375C10.7741 9.375 9.375 10.7741 9.375 12.5C9.375 14.2259 10.7741 15.625 12.5 15.625Z" stroke="#00376A" stroke-width="2" stroke-linecap="round" stroke-linejoin="round"/>
</svg>
